<svg width="14" height="15" viewBox="0 0 14 15" fill="none" xmlns="http://www.w3.org/2000/svg">
<path d="M11.9287 12.781H9.8543V9.30031C9.8543 8.47031 9.84047 7.40184 8.77542 7.40184C7.69502 7.40184 7.52972 8.30616 7.52972 9.23989V12.7808H5.45536V5.62306H7.44674V6.60124H7.47462C7.67391 6.23614 7.96189 5.93579 8.30789 5.73218C8.65389 5.52857 9.04495 5.42933 9.43943 5.44502C11.5419 5.44502 11.9295 6.92676 11.9295 8.8544L11.9287 12.781ZM3.11479 4.64465C2.8767 4.64469 2.64395 4.56909 2.44597 4.42741C2.24798 4.28572 2.09366 4.08431 2.00251 3.84864C1.91136 3.61298 1.88747 3.35365 1.93388 3.10344C1.98029 2.85323 2.09489 2.62339 2.26322 2.44298C2.43154 2.26256 2.64601 2.13968 2.87951 2.08986C3.11301 2.04005 3.35506 2.06555 3.57504 2.16313C3.79501 2.26071 3.98305 2.42599 4.11535 2.63807C4.24766 2.85015 4.3183 3.09951 4.31835 3.35461C4.31838 3.52399 4.28727 3.69172 4.2268 3.84822C4.16633 4.00471 4.07768 4.14692 3.96592 4.26671C3.85416 4.3865 3.72147 4.48153 3.57544 4.54638C3.4294 4.61123 3.27287 4.64462 3.11479 4.64465ZM4.15197 12.781H2.07544V5.62306H4.15197V12.781ZM12.9628 0.0010216H1.03308C0.762306 -0.00225243 0.501395 0.109789 0.307683 0.312526C0.113971 0.515263 0.00330462 0.792108 0 1.08223V13.9175C0.00319151 14.2078 0.113791 14.4848 0.307496 14.6878C0.501201 14.8907 0.762172 15.003 1.03308 14.9999H12.9628C13.2343 15.0036 13.496 14.8916 13.6904 14.6887C13.8849 14.4857 13.9962 14.2084 14 13.9175V1.0813C13.9961 0.790606 13.8847 0.513447 13.6902 0.310715C13.4958 0.107983 13.2341 -0.00373839 12.9628 9.55135e-05" fill="white"/>
</svg>
