<svg width="11" height="15" viewBox="0 0 11 15" fill="none" xmlns="http://www.w3.org/2000/svg">
<path d="M5.50465 0C2.46407 0 0 2.43417 0 5.43784C0 9.15799 4.91885 14.6142 5.13271 14.8438C5.32798 15.0643 5.67202 15.0643 5.86729 14.8438C6.08115 14.6142 11 9.15799 11 5.43784C11 2.44336 8.53592 0 5.49535 0H5.50465ZM5.50465 8.16595C3.97971 8.16595 2.73373 6.93509 2.73373 5.42866C2.73373 3.92223 3.97971 2.69137 5.50465 2.69137C7.02959 2.69137 8.27557 3.91304 8.27557 5.42866C8.27557 6.94427 7.02959 8.16595 5.50465 8.16595Z" fill="white"/>
</svg>
