<svg width="14" height="16" viewBox="0 0 14 16" fill="none" xmlns="http://www.w3.org/2000/svg">
<path fill-rule="evenodd" clip-rule="evenodd" d="M13.5602 11.6226L10.7126 9.81301H10.6943C10.5932 9.74871 10.4646 9.72116 10.2993 9.72116C10.0605 9.72116 9.85839 9.80383 9.67468 9.97835L8.82961 10.8969C8.82961 10.8969 8.7745 10.9336 8.73775 10.952C8.69183 10.9704 8.66427 10.9796 8.6459 10.9796L8.46219 10.9428C8.34278 10.9153 8.15906 10.8418 7.92943 10.7132C7.69979 10.5846 7.40585 10.3917 7.06598 10.1161C6.71693 9.84975 6.33114 9.46396 5.88105 8.97713C5.43096 8.49948 5.0819 8.07694 4.83389 7.70952C4.58589 7.3421 4.40217 7.02979 4.29195 6.78178C4.15416 6.49703 4.06231 6.23983 4.02557 6.01938C4.02557 5.99182 4.02557 5.9459 4.04394 5.89997C4.06231 5.85404 4.07149 5.8173 4.09905 5.79893L4.82471 5.01816C4.95331 4.88037 5.03598 4.71503 5.07272 4.51295C5.10946 4.31087 5.09109 4.12716 4.99923 3.95263L3.41932 0.719319C3.35502 0.599907 3.26317 0.508051 3.17131 0.425381C3.07027 0.342711 2.96004 0.305969 2.83145 0.305969C2.65692 0.305969 2.50077 0.379454 2.36298 0.526422L0.397275 2.6391C0.296234 2.73095 0.213564 2.85955 0.149265 3.01571C0.0849663 3.17186 0.0390386 3.31883 0.0206675 3.4658C0.0206675 3.48417 0.0206675 3.5944 0.00229639 3.78729C-0.00688916 3.98019 0.0114819 4.23738 0.0574097 4.57725C0.103337 4.90793 0.204378 5.31209 0.342162 5.77137C0.479945 6.23065 0.682027 6.74504 0.957593 7.31454C1.23316 7.88405 1.60058 8.49948 2.05067 9.17002C2.50077 9.84057 3.07027 10.5387 3.75919 11.2643C4.62263 12.2104 5.44014 12.9453 6.21173 13.4872C6.98331 14.0292 7.66304 14.4333 8.26929 14.6997C8.87554 14.9661 9.38993 15.1406 9.80328 15.2049C10.2258 15.2692 10.5197 15.306 10.7126 15.306C10.7953 15.306 10.8596 15.306 10.9055 15.306C10.9515 15.306 10.9882 15.306 10.9974 15.306C11.1352 15.2876 11.273 15.2325 11.4199 15.159C11.5669 15.0855 11.6771 14.9937 11.769 14.8926L13.7347 12.7983C13.9 12.6146 13.9735 12.4033 13.946 12.1645C13.9092 11.9532 13.7806 11.7787 13.5785 11.6409L13.5602 11.6226Z" fill="white"/>
</svg>
